<svg width="895" height="625" viewBox="0 0 895 625" fill="none" xmlns="http://www.w3.org/2000/svg">
<g id="Illustration">
<g id="Shape">
<path id="Triangle" opacity="0.05" fill-rule="evenodd" clip-rule="evenodd" d="M789.307 60.9414C790.885 58.5175 794.434 58.5175 796.012 60.9414L890.976 206.837C892.708 209.498 890.798 213.019 887.624 213.019H697.696C694.521 213.019 692.611 209.498 694.343 206.837L789.307 60.9414Z" fill="#EA5455"/>
<path id="Triangle_2" opacity="0.05" fill-rule="evenodd" clip-rule="evenodd" d="M120.595 308.232C122.171 305.797 125.734 305.797 127.31 308.232L243.908 488.335C245.631 490.997 243.721 494.509 240.55 494.509H7.35465C4.1842 494.509 2.27391 490.997 3.99689 488.335L120.595 308.232Z" fill="#EA5455"/>
<path id="Triangle_3" opacity="0.25" fill-rule="evenodd" clip-rule="evenodd" d="M563.642 277.814C565.218 275.375 568.786 275.375 570.362 277.814L758.797 569.488C760.516 572.149 758.606 575.658 755.437 575.658H378.567C375.398 575.658 373.488 572.149 375.207 569.488L563.642 277.814Z" fill="#7367F0"/>
<path id="Triangle_4" opacity="0.25" fill-rule="evenodd" clip-rule="evenodd" d="M745.36 48.9079C746.91 46.2962 750.691 46.2963 752.24 48.9079L818.951 161.331C820.534 163.997 818.612 167.372 815.511 167.372H682.089C678.989 167.372 677.067 163.997 678.649 161.331L745.36 48.9079Z" fill="#7367F0"/>
<path id="Triangle_5" opacity="0.05" fill-rule="evenodd" clip-rule="evenodd" d="M222.289 5.24947C223.863 2.79552 227.449 2.79552 229.023 5.24948L277.008 80.0625C278.715 82.7247 276.803 86.222 273.641 86.222H177.672C174.509 86.222 172.598 82.7247 174.305 80.0625L222.289 5.24947Z" fill="#EA5455"/>
</g>
<g id="Finance Presentation">
<g id="DesktopDasboard">
<path id="Rectangle" fill-rule="evenodd" clip-rule="evenodd" d="M120.773 129.111C120.773 115.228 132.028 103.974 145.91 103.974H747.571C761.454 103.974 772.708 115.228 772.708 129.111V504.602C772.708 518.484 761.454 529.739 747.571 529.739H145.91C132.028 529.739 120.773 518.484 120.773 504.602V129.111Z" fill="#F2F2F2"/>
<g id="ElementCard11">
<g id="Rectangle_2" filter="url(#filter0_d)">
<path fill-rule="evenodd" clip-rule="evenodd" d="M302.613 177.236C302.613 173.103 305.964 169.752 310.098 169.752H553.634C557.767 169.752 561.118 173.103 561.118 177.236V339.498C561.118 343.632 557.767 346.983 553.634 346.983H310.098C305.964 346.983 302.613 343.632 302.613 339.498V177.236Z" fill="#7367F0"/>
</g>
<g id="Group 12">
<path id="Path" opacity="0.39488" fill-rule="evenodd" clip-rule="evenodd" d="M371.446 235.726C372.272 235.726 372.943 236.396 372.943 237.223V276.41C372.943 277.236 372.272 277.906 371.446 277.906H361.894C361.068 277.906 360.397 277.236 360.397 276.41V237.223C360.397 236.396 361.068 235.726 361.894 235.726H371.446Z" fill="white"/>
<path id="Path_2" fill-rule="evenodd" clip-rule="evenodd" d="M351.678 251.631C352.505 251.631 353.175 252.301 353.175 253.128V276.409C353.175 277.236 352.505 277.906 351.678 277.906H342.127C341.3 277.906 340.63 277.236 340.63 276.409V253.128C340.63 252.301 341.3 251.631 342.127 251.631H351.678Z" fill="white"/>
<path id="Path_3" fill-rule="evenodd" clip-rule="evenodd" d="M391.214 220.579C392.041 220.579 392.711 221.249 392.711 222.075V276.41C392.711 277.237 392.041 277.907 391.214 277.907H381.663C380.836 277.907 380.166 277.237 380.166 276.41V222.075C380.166 221.249 380.836 220.579 381.663 220.579H391.214Z" fill="white"/>
<path id="Path_4" opacity="0.39488" fill-rule="evenodd" clip-rule="evenodd" d="M410.983 228.152C411.809 228.152 412.48 228.823 412.48 229.649V276.41C412.48 277.237 411.809 277.907 410.983 277.907H401.431C400.605 277.907 399.935 277.237 399.935 276.41V229.649C399.935 228.823 400.605 228.152 401.431 228.152H410.983Z" fill="white"/>
<path id="Path_5" fill-rule="evenodd" clip-rule="evenodd" d="M430.75 243.3C431.577 243.3 432.247 243.97 432.247 244.797V276.41C432.247 277.237 431.577 277.907 430.75 277.907H421.199C420.372 277.907 419.702 277.237 419.702 276.41V244.797C419.702 243.97 420.372 243.3 421.199 243.3H430.75Z" fill="white"/>
<path id="Path_6" opacity="0.39488" fill-rule="evenodd" clip-rule="evenodd" d="M450.519 277.383C451.346 277.383 452.016 278.053 452.016 278.88V302.919C452.016 303.746 451.346 304.416 450.519 304.416H440.968C440.141 304.416 439.471 303.746 439.471 302.919V278.88C439.471 278.053 440.141 277.383 440.968 277.383H450.519Z" fill="white"/>
<path id="Path_7" fill-rule="evenodd" clip-rule="evenodd" d="M470.285 277.383C471.111 277.383 471.781 278.053 471.781 278.88V324.126C471.781 324.953 471.111 325.623 470.285 325.623H460.733C459.907 325.623 459.236 324.953 459.236 324.126V278.88C459.236 278.053 459.907 277.383 460.733 277.383H470.285Z" fill="white"/>
<path id="Path_8" opacity="0.39488" fill-rule="evenodd" clip-rule="evenodd" d="M490.055 277.383C490.882 277.383 491.552 278.053 491.552 278.88V312.765C491.552 313.592 490.882 314.262 490.055 314.262H480.504C479.677 314.262 479.007 313.592 479.007 312.765V278.88C479.007 278.053 479.677 277.383 480.504 277.383H490.055Z" fill="white"/>
<path id="Path_9" fill-rule="evenodd" clip-rule="evenodd" d="M509.822 277.383C510.648 277.383 511.319 278.053 511.319 278.88V320.339C511.319 321.166 510.648 321.836 509.822 321.836H500.27C499.444 321.836 498.773 321.166 498.773 320.339V278.88C498.773 278.053 499.444 277.383 500.27 277.383H509.822Z" fill="white"/>
<path id="Path_10" opacity="0.39488" fill-rule="evenodd" clip-rule="evenodd" d="M529.59 277.383C530.417 277.383 531.087 278.053 531.087 278.88V302.919C531.087 303.746 530.417 304.416 529.59 304.416H520.039C519.212 304.416 518.542 303.746 518.542 302.919V278.88C518.542 278.053 519.212 277.383 520.039 277.383H529.59Z" fill="white"/>
</g>
<path id="Rectangle_3" opacity="0.39488" fill-rule="evenodd" clip-rule="evenodd" d="M333.786 202.319C333.786 201.064 334.804 200.046 336.059 200.046H412.106C413.361 200.046 414.379 201.064 414.379 202.319C414.379 203.574 413.361 204.592 412.106 204.592H336.059C334.804 204.592 333.786 203.574 333.786 202.319Z" fill="white"/>
<rect id="Rectangle_4" x="333.786" y="187.171" width="42.5773" height="4.54531" rx="2.27266" fill="white"/>
</g>
<path id="Rectangle_5" fill-rule="evenodd" clip-rule="evenodd" d="M120.773 129.111C120.773 115.228 132.028 103.974 145.91 103.974H229.483C243.366 103.974 254.62 115.228 254.62 129.111V529.739H145.91C132.028 529.739 120.773 518.484 120.773 504.602V129.111Z" fill="#E4E4E4"/>
<path id="Rectangle_6" fill-rule="evenodd" clip-rule="evenodd" d="M137.026 167.667C137.026 164.906 139.265 162.667 142.026 162.667L231.58 162.667C234.342 162.667 236.58 164.906 236.58 167.667V175.882C236.58 178.644 234.342 180.882 231.58 180.882H142.026C139.265 180.882 137.026 178.644 137.026 175.882V167.667Z" fill="white" fill-opacity="0.423924"/>
<path id="Rectangle_7" fill-rule="evenodd" clip-rule="evenodd" d="M137.026 201.062C137.026 198.301 139.265 196.062 142.026 196.062L190.946 196.062C193.708 196.062 195.946 198.301 195.946 201.062V209.277C195.946 212.039 193.708 214.277 190.946 214.277H142.026C139.265 214.277 137.026 212.039 137.026 209.277V201.062Z" fill="white" fill-opacity="0.204873"/>
<path id="Rectangle_8" fill-rule="evenodd" clip-rule="evenodd" d="M137.026 231.422C137.026 228.66 139.265 226.422 142.026 226.422L190.946 226.422C193.708 226.422 195.946 228.66 195.946 231.422V239.637C195.946 242.399 193.708 244.637 190.946 244.637H142.026C139.265 244.637 137.026 242.399 137.026 239.637V231.422Z" fill="white" fill-opacity="0.204873"/>
<path id="Rectangle_9" fill-rule="evenodd" clip-rule="evenodd" d="M598.227 103.973H747.571C761.454 103.973 772.708 115.227 772.708 129.11V504.601C772.708 518.483 761.454 529.738 747.571 529.738H598.227V103.973Z" fill="#E4E4E4"/>
<g id="Group 23">
<g id="Rectangle_10" filter="url(#filter1_d)">
<path fill-rule="evenodd" clip-rule="evenodd" d="M627.726 173.719C627.704 168.181 632.188 163.68 637.726 163.68L739.02 163.68C744.527 163.68 748.998 168.133 749.019 173.64L749.55 307.459C749.572 312.997 745.088 317.499 739.55 317.499H638.256C632.749 317.499 628.278 313.046 628.257 307.538L627.726 173.719Z" fill="white"/>
</g>
<path id="Rectangle_11" opacity="0.33996" d="M666.289 261.841C666.289 260.164 667.648 258.805 669.325 258.805H707.951C709.628 258.805 710.987 260.164 710.987 261.841C710.987 263.517 709.628 264.876 707.951 264.876H669.325C667.648 264.876 666.289 263.517 666.289 261.841Z" fill="#467FFF"/>
<path id="Rectangle_12" opacity="0.33996" d="M656.13 278.031C656.13 276.354 657.489 274.995 659.166 274.995H718.109C719.786 274.995 721.145 276.354 721.145 278.031C721.145 279.708 719.786 281.067 718.109 281.067H659.166C657.489 281.067 656.13 279.708 656.13 278.031Z" fill="#467FFF"/>
<g id="Icon8">
<g id="Oval" filter="url(#filter2_dd)">
<ellipse cx="688.713" cy="212.849" rx="23.4409" ry="23.87" fill="white"/>
</g>
<g id="Group 70">
<path id="Combined Shape" fill-rule="evenodd" clip-rule="evenodd" d="M689.158 212.057C692.469 212.057 695.154 209.382 695.154 206.083C695.154 202.784 692.469 200.11 689.158 200.11C685.846 200.11 683.161 202.784 683.161 206.083C683.161 209.382 685.846 212.057 689.158 212.057ZM688.43 213.748C683.495 213.748 679.495 217.749 679.495 222.683C679.495 223.247 679.952 223.704 680.516 223.704H697.796C698.36 223.704 698.817 223.247 698.817 222.683C698.817 217.749 694.817 213.748 689.882 213.748H688.43Z" fill="#7367F0"/>
</g>
</g>
</g>
<path id="Rectangle_13" fill-rule="evenodd" clip-rule="evenodd" d="M624.641 409.528C624.641 406.766 626.879 404.528 629.641 404.528H747.639C750.4 404.528 752.639 406.766 752.639 409.528V498.701C752.639 501.462 750.4 503.701 747.639 503.701H629.641C626.879 503.701 624.641 501.462 624.641 498.701V409.528Z" fill="white" fill-opacity="0.345908"/>
<path id="Rectangle_14" fill-rule="evenodd" clip-rule="evenodd" d="M120.773 129.111C120.773 115.228 132.028 103.974 145.91 103.974H747.571C761.454 103.974 772.708 115.228 772.708 129.111V139.119H120.773V129.111Z" fill="#D4D4D4"/>
<ellipse id="Oval_2" cx="147.186" cy="121.177" rx="4.06343" ry="4.04787" fill="#F5818D"/>
<ellipse id="Oval_3" cx="163.439" cy="121.177" rx="4.06343" ry="4.04787" fill="#FFBD63"/>
<ellipse id="Oval_4" cx="180.709" cy="121.177" rx="4.06343" ry="4.04787" fill="#4CE47A"/>
</g>
<g id="ElementCard25">
<g id="Rectangle_15" filter="url(#filter3_d)">
<path fill-rule="evenodd" clip-rule="evenodd" d="M305.113 374.967C305.113 371.66 307.794 368.979 311.101 368.979H461.718C465.024 368.979 467.705 371.66 467.705 374.967V423.121C467.705 426.427 465.024 429.108 461.718 429.108H311.101C307.794 429.108 305.113 426.427 305.113 423.121V374.967Z" fill="white"/>
</g>
<path id="Rectangle_16" opacity="0.2" fill-rule="evenodd" clip-rule="evenodd" d="M358.092 404.207C358.092 403.201 358.908 402.385 359.914 402.385H390.371C391.378 402.385 392.193 403.201 392.193 404.207C392.193 405.214 391.378 406.03 390.371 406.03H359.914C358.908 406.03 358.092 405.214 358.092 404.207Z" fill="#FF9F43"/>
<path id="Rectangle_17" opacity="0.5" fill-rule="evenodd" clip-rule="evenodd" d="M358.092 393.883C358.092 392.876 358.908 392.06 359.914 392.06H378.192C379.198 392.06 380.014 392.876 380.014 393.883C380.014 394.889 379.198 395.705 378.192 395.705H359.914C358.908 395.705 358.092 394.889 358.092 393.883Z" fill="#FF9F43"/>
<path id="Path_11" d="M417.925 392.226C418.448 391.081 419.802 390.576 420.95 391.098C421.33 391.27 421.654 391.543 421.888 391.884L421.972 392.016L426.45 399.612C426.493 399.684 426.586 399.708 426.658 399.666L426.678 399.652L426.695 399.636L429.078 396.948C429.914 396.006 431.357 395.918 432.302 396.751C432.364 396.806 432.423 396.864 432.479 396.925L432.56 397.019L436.054 401.3C436.107 401.365 436.203 401.375 436.268 401.322L436.287 401.304L436.302 401.284L441.822 392.387C442.485 391.317 443.893 390.987 444.965 391.649C445.131 391.751 445.283 391.875 445.418 392.015L445.515 392.124L448.086 395.19C448.464 395.64 448.404 396.311 447.953 396.687C447.527 397.043 446.903 397.009 446.517 396.625L446.452 396.554L443.88 393.488C443.87 393.476 443.857 393.465 443.844 393.456C443.784 393.42 443.709 393.429 443.66 393.474L443.634 393.506L438.114 402.402C437.98 402.618 437.811 402.81 437.614 402.97C436.67 403.737 435.296 403.626 434.486 402.74L434.401 402.642L430.907 398.362C430.902 398.355 430.896 398.349 430.89 398.344C430.837 398.297 430.762 398.294 430.706 398.33L430.675 398.357L428.292 401.044C428.133 401.223 427.946 401.377 427.739 401.498C426.688 402.115 425.345 401.797 424.679 400.795L424.613 400.689L420.134 393.093C420.118 393.066 420.095 393.045 420.066 393.032C420.002 393.003 419.929 393.022 419.886 393.073L419.865 393.107L415.501 402.657C415.339 403.013 415.087 403.321 414.772 403.551L414.651 403.633L409.478 406.923C408.981 407.239 408.322 407.093 408.006 406.598C407.707 406.131 407.821 405.519 408.252 405.186L408.332 405.131L413.505 401.841C413.522 401.83 413.536 401.817 413.547 401.801L413.562 401.776L417.925 392.226Z" fill="#FF9F43"/>
<ellipse id="Oval_5" cx="335.256" cy="399.652" rx="12.4836" ry="12.4509" fill="#FF9F43"/>
</g>
<g id="ElementCard26">
<g id="Rectangle_18" filter="url(#filter4_d)">
<path fill-rule="evenodd" clip-rule="evenodd" d="M305.113 457.385C305.113 454.078 307.794 451.397 311.101 451.397H461.718C465.024 451.397 467.705 454.078 467.705 457.385V505.539C467.705 508.845 465.024 511.526 461.718 511.526H311.101C307.794 511.526 305.113 508.845 305.113 505.539V457.385Z" fill="white"/>
</g>
<path id="Rectangle_19" opacity="0.454078" fill-rule="evenodd" clip-rule="evenodd" d="M359.311 487.232C359.311 486.226 360.126 485.41 361.133 485.41H391.59C392.596 485.41 393.412 486.226 393.412 487.232C393.412 488.239 392.596 489.055 391.59 489.055H361.133C360.126 489.055 359.311 488.239 359.311 487.232Z" fill="#28C76F"/>
<path id="Rectangle_20" fill-rule="evenodd" clip-rule="evenodd" d="M359.311 476.906C359.311 475.9 360.126 475.084 361.133 475.084H379.411C380.417 475.084 381.233 475.9 381.233 476.906C381.233 477.913 380.417 478.729 379.411 478.729H361.133C360.126 478.729 359.311 477.913 359.311 476.906Z" fill="#28C76F"/>
<path id="Path 146" fill-rule="evenodd" clip-rule="evenodd" d="M409.246 488.796L415.815 477.297C416.477 476.138 417.959 475.744 419.11 476.421L421.611 477.894C422.46 478.394 423.528 478.323 424.303 477.715L427.747 475.018C428.545 474.393 429.65 474.338 430.506 474.88L433.07 476.505C434.369 477.329 436.125 476.735 436.891 475.401C437.898 473.648 439.478 471.59 441.556 471.009C445.37 469.943 450.242 471.009 450.242 471.009V488.796H409.246Z" fill="url(#paint0_linear)"/>
<path id="Path 146_2" fill-rule="evenodd" clip-rule="evenodd" d="M409.246 488.796L416.356 483.154C417.171 482.508 418.311 482.461 419.176 483.04L420.358 483.83C421.218 484.406 422.351 484.363 423.166 483.725L426.529 481.091C427.327 480.466 428.432 480.411 429.288 480.953L432.501 482.99C433.565 483.664 434.973 483.403 435.808 482.46C437.321 480.75 439.827 478.294 442.243 477.619C446.057 476.553 450.242 477.082 450.242 477.082V488.796H409.246Z" fill="#28C76F"/>
<ellipse id="Oval_6" cx="335.256" cy="482.07" rx="12.4836" ry="12.4509" fill="#28C76F"/>
</g>
<g id="Icon2">
<ellipse id="Oval_7" cx="467.524" cy="454.514" rx="18.5276" ry="19.0188" fill="#28C76F"/>
<path id="Path_12" fill-rule="evenodd" clip-rule="evenodd" d="M461.186 453.081C460.634 452.415 459.645 452.321 458.977 452.871C458.308 453.421 458.214 454.406 458.765 455.073L464.212 461.651C464.869 462.444 466.046 462.556 466.842 461.902C466.958 461.806 467.062 461.697 467.152 461.577L474.958 451.118C475.475 450.425 475.33 449.445 474.635 448.93C473.94 448.414 472.957 448.558 472.439 449.251L465.601 458.414L461.186 453.081Z" fill="white"/>
</g>
<g id="Men3.2">
<g id="LLeg">
<path id="Path_13" fill-rule="evenodd" clip-rule="evenodd" d="M229.621 592.364C229.621 592.364 229.463 602.372 235.681 605.927C241.899 609.483 251.532 616.089 251.532 616.089L214.885 617.316L215.93 592.273L229.621 592.364Z" fill="#F8CFCF"/>
<path id="Path_14" fill-rule="evenodd" clip-rule="evenodd" d="M213.606 603.393L213.01 619.629H221.522L222.105 617.538C222.105 617.538 225.31 617.408 227.162 618.311C229.12 619.267 229.383 619.73 229.383 619.73L256.383 619.786C256.383 619.786 257.715 614.539 249.484 610.743C241.254 606.946 235.261 601.558 234.123 601.006C232.976 600.451 230.663 600.137 229.034 601.443C227.405 602.747 226.116 606.179 222.425 606.286C217.673 606.425 214.944 600.647 213.606 603.393Z" fill="#4B4B4B"/>
<path id="Path 38" d="M236.681 602.769L233.882 605.444" stroke="white" stroke-width="2" stroke-linecap="round"/>
<path id="Path 38_2" d="M240.762 604.796L237.963 607.471" stroke="white" stroke-width="2" stroke-linecap="round"/>
<path id="Path 38_3" d="M244.844 606.822L242.045 609.497" stroke="white" stroke-width="2" stroke-linecap="round"/>
<path id="Path_15" fill-rule="evenodd" clip-rule="evenodd" d="M202.798 376.145C202.798 376.145 212.979 486.877 213.296 494.574C213.612 502.272 210.026 515.556 210.095 529.954C210.165 544.353 211.405 595.099 211.405 595.099L233.865 595.569C233.865 595.569 243.304 503.866 243.405 490.115C243.507 476.364 244.372 377.469 244.372 377.469L202.798 376.145Z" fill="#383838"/>
<path id="Path_16" opacity="0.283552" fill-rule="evenodd" clip-rule="evenodd" d="M218.987 498.021L219.012 498.295C219.35 502.989 216.398 518.433 210.157 544.628L210.096 529.955C210.027 515.813 213.486 502.747 213.309 494.992L213.296 494.574C213.189 491.98 211.962 477.685 210.382 459.869L211.12 462.478C215.45 477.933 218.072 489.781 218.987 498.021Z" fill="white" fill-opacity="0.192499"/>
</g>
<g id="RLeg">
<path id="Path_17" fill-rule="evenodd" clip-rule="evenodd" d="M176.098 590.605L171.798 616.548L187.65 616.469L188.151 590.198L176.098 590.605Z" fill="#F8CFCF"/>
<path id="Path_18" fill-rule="evenodd" clip-rule="evenodd" d="M174.04 601.902C172.696 602.193 171.721 603.36 171.675 604.735L171.536 608.941C169.282 611.43 168.224 618.643 168.121 619.379C168.115 619.422 168.111 619.462 168.115 619.506C168.404 623.033 191.644 622.981 193.688 619.651C193.77 619.517 193.776 619.361 193.751 619.206C193.522 617.82 192.234 610.652 189.737 608.707L189.722 604.545C189.717 603.191 188.805 602.008 187.496 601.658L184.774 600.93C182.457 597.564 179.299 597.683 176.593 601.351L174.04 601.902Z" fill="#4B4B4B"/>
<path id="Path 39" d="M177.492 604.155H183.909" stroke="white" stroke-width="2" stroke-linecap="round"/>
<path id="Path 39_2" d="M177.492 607.196H183.909" stroke="white" stroke-width="2" stroke-linecap="round"/>
<path id="Path 39_3" d="M178.514 610.237H182.89" stroke="white" stroke-width="2" stroke-linecap="round"/>
<path id="Path_19" fill-rule="evenodd" clip-rule="evenodd" d="M184.093 377.044C184.093 377.044 177.01 453.021 177.107 467.571C177.203 482.121 179.286 488.511 176.321 498.949C173.355 509.386 170.826 592.697 170.826 592.697L192.756 595.087C192.756 595.087 206.766 505.94 208.289 493.58C209.813 481.22 228.642 375.996 228.642 375.996L184.093 377.044Z" fill="#2E2E2E"/>
<path id="Path_20" opacity="0.283552" fill-rule="evenodd" clip-rule="evenodd" d="M190.014 428.611L188.676 433.433C184.76 447.665 181.144 462.715 182.091 484.214L182.137 485.196C182.37 489.853 179.395 516.882 173.212 566.281L172.624 569.753C172.018 573.294 171.478 576.316 171.005 578.818L171.139 574.443C171.928 550.294 174.048 506.939 176.319 498.948C179.284 488.511 177.2 482.121 177.104 467.571C177.037 457.386 180.487 417.102 182.564 393.848L184.091 377.044L193.348 376.826L193.37 379.414C193.533 403.303 192.415 419.702 190.014 428.611Z" fill="white" fill-opacity="0.192499"/>
</g>
<g id="LArm">
<g id="Group 6">
<path id="Path_21" fill-rule="evenodd" clip-rule="evenodd" d="M291.87 283.414C291.87 283.414 290.043 273.304 290.7 271.257C291.261 269.487 296.562 266.936 296.562 266.936C296.562 266.936 305.782 252.466 307.8 253.939C309.441 255.134 302.998 265.801 302.998 265.801C302.998 265.801 308.873 271.925 308.791 274.662C308.709 277.4 299.202 285.969 299.202 285.969L291.87 283.414Z" fill="#F8CFCF"/>
<path id="Path_22" fill-rule="evenodd" clip-rule="evenodd" d="M296.76 266.79C296.76 266.79 300.843 266.238 301.493 267.501C302.047 268.576 298.654 271.627 298.654 272.485C298.654 273.342 298.703 279.834 298.976 279.893C299.249 279.952 303.066 269.3 302.252 267.047C301.582 265.197 296.76 266.79 296.76 266.79Z" fill="#F28585"/>
</g>
<path id="Path_23" fill-rule="evenodd" clip-rule="evenodd" d="M243.16 296.279C232.465 286.997 216.404 303.73 234.313 319.287C241.145 325.221 262.606 340.025 267.867 343.28C276.242 348.462 283.125 343.786 285.953 335.633C288.352 328.721 302.703 291.719 300.876 286.284C299.686 282.74 293.295 279.291 290.087 282.08C285.399 286.156 271.058 321.913 271.058 321.913C271.058 321.913 255.321 306.832 243.16 296.279Z" fill="#877BFF"/>
<path id="Path_24" fill-rule="evenodd" clip-rule="evenodd" d="M271.058 321.913C271.058 321.913 275.755 327.636 276.094 326.762C276.433 325.887 272.369 318.533 272.369 318.533L271.058 321.913Z" fill="black" fill-opacity="0.159856"/>
<path id="Path 41" d="M288.841 284.373C292.572 282.637 296.649 284.783 298.896 288.227" stroke="#5386BF" stroke-linecap="round"/>
</g>
<g id="Head">
<path id="Path_25" fill-rule="evenodd" clip-rule="evenodd" d="M197.111 285.789C197.111 285.789 203.184 284.373 203.394 274.489C203.605 264.604 203.457 261.23 203.457 261.23L217.853 260.99C217.853 260.99 217.998 272.006 218.001 275.991C218.006 284.666 224.491 287.009 224.491 287.009C224.491 287.009 223.952 296.494 211.832 297.171C202.37 297.701 197.111 285.789 197.111 285.789Z" fill="#F8C5C5"/>
<g id="Head1">
<path id="Path_26" fill-rule="evenodd" clip-rule="evenodd" d="M230.68 250.575L230.358 259.917C233.079 256.741 234.916 252.803 235.46 247.752L230.68 250.575Z" fill="url(#paint1_linear)"/>
<path id="Path_27" fill-rule="evenodd" clip-rule="evenodd" d="M202.136 256.235C196.169 256.005 197.142 264.683 203.34 264.671C203.34 264.671 210.002 277.977 220.46 278.012C225.497 278.029 227.142 273.571 228.652 270.441C230.162 267.312 231.271 262.631 231.363 259.765C231.462 256.709 231.474 246.669 231.474 246.669L201.903 246.656L202.136 256.235Z" fill="#F8CFCF"/>
<path id="Path_28" fill-rule="evenodd" clip-rule="evenodd" d="M231.473 251.275H210.677C210.458 255.009 209.21 258.109 206.04 260.396C206.13 265.865 207.972 269.847 211.166 272.639C213.946 264.723 230.954 266.889 229.717 272.054C227.119 282.905 202.759 283.151 204.237 258.176C203.265 256.86 199.79 256.614 198.645 257.93C196.692 252.474 197.526 244.755 203.176 243.638C198.74 232.011 259.052 229.552 231.473 251.275Z" fill="#424242"/>
<path id="Path_29" d="M218.15 271.576C218.15 271.576 220.861 273.554 224.427 271.391" stroke="#CC6969" stroke-linecap="round"/>
<path id="Path 8" d="M203.067 261.189C203.128 259.797 202.701 258.691 201.272 258.469" stroke="#DE6767" stroke-linecap="round"/>
</g>
</g>
<g id="Body">
<path id="Path_30" fill-rule="evenodd" clip-rule="evenodd" d="M199.513 284.247L216.885 295.538L224.717 286.422C224.717 286.422 241.219 291.54 244.281 297.523C248.698 306.157 242.878 375.335 245.415 379.51C250.822 388.405 243.633 394.511 219.835 396.755C196.037 398.998 174.924 397.161 178.755 385.29C182.587 373.419 167.801 295.943 180.837 291.675C184.91 290.342 199.513 284.247 199.513 284.247Z" fill="#7367F0"/>
<path id="Path_31" fill-rule="evenodd" clip-rule="evenodd" d="M187.788 305.605C188.84 307.466 188.297 313.913 186.161 324.946C184.34 334.346 186.422 344.07 191.917 351.915L192.226 352.349C194.084 354.919 195.798 358.303 197.366 362.501C201.212 372.797 192.341 381.379 199.139 397.486L198.317 397.447C184.979 396.757 176.162 393.317 178.753 385.29C181.895 375.556 172.521 321.72 176.228 300.292C182.645 301.554 186.498 303.324 187.788 305.605Z" fill="black" fill-opacity="0.159856"/>
<path id="Path_32" fill-rule="evenodd" clip-rule="evenodd" d="M199.512 284.246L215.05 294.384C212.772 297.033 211.551 300.115 211.09 303.507C205.118 298.835 198.911 292.306 196.987 285.286L199.512 284.246Z" fill="#5E54C7"/>
<path id="Path_33" fill-rule="evenodd" clip-rule="evenodd" d="M218.111 294.121C220.739 295.899 222.835 299.046 224.541 302.625C226.587 298.512 227.37 293.081 227.37 287.289L224.804 286.274L218.111 294.121Z" fill="#5E54C7"/>
<path id="Path_34" fill-rule="evenodd" clip-rule="evenodd" d="M215.049 294.383L215.251 294.496C216.183 295.017 217.345 294.864 218.11 294.12C223.968 315.607 228.088 339.258 229.334 363.293L223.22 373.453L216.069 363.945C217.001 338.964 216.995 314.607 215.049 294.383Z" fill="url(#paint2_linear)"/>
</g>
<g id="RArm">
<g id="Example Book Back">
<g id="Group 3">
<path id="Rectangle_21" d="M231.37 348.42C231.516 347.028 232.792 346.037 234.177 346.239L249.151 348.424C250.459 348.615 251.383 349.804 251.245 351.119L248.606 376.152C248.46 377.544 247.184 378.535 245.799 378.333L230.825 376.149C229.517 375.958 228.593 374.769 228.732 373.454L231.37 348.42Z" fill="#6182EC"/>
<path id="Rectangle_22" fill-rule="evenodd" clip-rule="evenodd" d="M233.061 347.911C233.213 346.471 234.567 345.471 235.987 345.75L251.262 348.741L261.866 348.561C263.345 348.536 264.512 349.81 264.357 351.281L261.722 376.282C261.592 377.521 260.557 378.468 259.312 378.489L248.107 378.68L232.401 375.604C231.149 375.358 230.291 374.198 230.425 372.929L233.061 347.911Z" fill="#96EFFA"/>
<path id="Rectangle_23" d="M235.732 353.743C235.83 352.816 236.695 352.168 237.612 352.336L244.924 353.672C245.747 353.822 246.314 354.581 246.227 355.412L245.883 358.673C245.785 359.6 244.92 360.248 244.003 360.08L236.691 358.744C235.869 358.594 235.301 357.835 235.388 357.003L235.732 353.743Z" fill="#74CFDB"/>
<path id="Rectangle_24" d="M250.14 349.428C250.186 348.989 250.58 348.67 251.019 348.716L251.864 348.804C252.303 348.85 252.622 349.244 252.575 349.683L249.598 377.934C249.552 378.373 249.158 378.692 248.719 378.646L247.875 378.557C247.435 378.511 247.116 378.118 247.163 377.678L250.14 349.428Z" fill="#EAEFFF"/>
<path id="Rectangle_25" d="M250.952 349.513C250.999 349.073 251.392 348.755 251.832 348.801L252.676 348.889C253.115 348.935 253.434 349.329 253.388 349.768L250.411 378.019C250.364 378.458 249.971 378.777 249.531 378.731L248.687 378.642C248.248 378.596 247.929 378.203 247.975 377.763L250.952 349.513Z" fill="#7AD2DD"/>
</g>
</g>
<path id="Path_35" fill-rule="evenodd" clip-rule="evenodd" d="M216.081 359.697C216.081 359.697 221.38 358.638 223.548 356.947C225.716 355.256 232.283 354.061 232.283 354.061L230.183 358.456C230.183 358.456 246.278 356.955 246.659 358.532C247.04 360.11 242.385 361.825 242.385 361.825C242.385 361.825 240.089 366.085 237.867 368.554C235.764 370.891 225.317 370.613 221.654 369.154C218.49 367.895 215.049 368.525 215.049 368.525L216.081 359.697Z" fill="#F8CFCF"/>
<path id="Path_36" fill-rule="evenodd" clip-rule="evenodd" d="M173.467 298.275C179.223 285.919 198.929 294.244 193.963 307.481C189.152 320.304 177.496 350.243 177.496 350.243C177.496 350.243 214.432 354.902 217.311 357.074C221.153 359.972 218.778 368.243 215.513 369.716C212.751 370.961 192.232 371.689 172.155 370.117C162.223 369.339 154.878 365.1 153.853 354.088C153.136 346.378 167.923 310.178 173.467 298.275Z" fill="#877BFF"/>
<path id="Path_37" fill-rule="evenodd" clip-rule="evenodd" d="M177.509 350.236C177.509 350.236 174.44 356.034 175.317 356.152C176.195 356.27 180.655 350.66 180.655 350.66L177.509 350.236Z" fill="black" fill-opacity="0.159856"/>
<path id="Path 40" d="M214.711 356.445C215.849 360.059 215.049 364.296 213.47 367.291" stroke="#5386BF" stroke-linecap="round"/>
</g>
</g>
<g id="Example Paper">
<path id="Rectangle_26" fill-rule="evenodd" clip-rule="evenodd" d="M606.229 324.993L577.313 343.014C577.313 343.014 583.781 353.337 590.248 363.66C596.716 373.983 599.052 386.88 599.052 386.88L627.968 368.859C627.968 368.859 625.632 355.961 619.164 345.638C612.697 335.316 606.229 324.993 606.229 324.993Z" fill="#E8FFFF"/>
<path id="Path 4" d="M605.502 337.139L590.465 346.51" stroke="black" stroke-opacity="0.115767" stroke-width="0.8" stroke-linecap="round"/>
<path id="Path 4_2" d="M608.555 342.929L593.519 352.3" stroke="black" stroke-opacity="0.115767" stroke-width="0.8" stroke-linecap="round"/>
<path id="Path 4_3" d="M611.61 348.719L596.574 358.09" stroke="black" stroke-opacity="0.115767" stroke-width="0.8" stroke-linecap="round"/>
<path id="Path 4_4" d="M614.666 354.509L599.629 363.88" stroke="black" stroke-opacity="0.115767" stroke-width="0.8" stroke-linecap="round"/>
</g>
<g id="Wom4.6">
<g id="RLeg_2">
<path id="Path_38" fill-rule="evenodd" clip-rule="evenodd" d="M724.91 595.301C724.91 595.301 724.788 602.338 724.788 604.604C724.788 606.339 724.858 611.478 724.667 612.268C724.397 613.38 724.121 616.103 724.121 616.103L738.921 616.496C738.921 616.496 735.18 609.242 734.962 608.283C734.745 607.323 733.092 595.301 733.092 595.301H724.91Z" fill="#FFE2E2"/>
<path id="Path_39" fill-rule="evenodd" clip-rule="evenodd" d="M736.201 613.836C735.874 613.553 733.879 609.065 730.345 609.065C726.397 609.065 725.324 613.692 725.19 613.836C724.971 614.072 723.959 613.978 723.713 614.426C722.519 616.604 721.886 621.022 722.981 622.62C724.145 624.327 739.985 624.356 740.861 622.748C741.778 621.051 739.612 616.425 737.943 614.426C737.518 613.918 736.371 613.983 736.201 613.836Z" fill="#2E2E2E"/>
<path id="Path_40" fill-rule="evenodd" clip-rule="evenodd" d="M687.671 398.508L716.585 395.365L717.01 395.76C719.071 397.723 728.027 406.843 730.6 419.309C735.458 442.843 728.956 486.308 729.1 495.839C729.237 505.37 733.741 511.121 735.612 524.597C737.484 538.073 737.66 598.3 737.66 598.3C732.699 601.241 728.333 601.451 722.416 598.123L687.671 398.508Z" fill="#26553B"/>
<path id="Path_41" fill-rule="evenodd" clip-rule="evenodd" d="M713.498 546.889L687.67 398.508L703.746 396.76C704.463 448.307 714.46 517.985 713.498 546.889Z" fill="white" fill-opacity="0.192499"/>
</g>
<g id="LLeg_2">
<path id="Path_42" fill-rule="evenodd" clip-rule="evenodd" d="M693.594 594.758L683.074 594.912C683.074 594.912 683.699 604.779 680.044 608.122L666.279 615.544C665.201 616.447 664.576 619.247 666.783 619.646C673.615 620.882 693.184 617.949 693.184 617.949L693.594 594.758Z" fill="#FFE2E2"/>
<path id="Path_43" fill-rule="evenodd" clip-rule="evenodd" d="M693.284 608.881C692.577 608.919 691.68 612.912 687.671 614.96C683.075 617.307 676.391 616.414 673.486 616.746C671.381 616.987 670.338 612.835 670.338 612.835C670.338 612.835 659.66 618.33 658.713 620.939C657.608 623.97 664.76 624.196 669.872 623.975C674.991 623.753 679.379 621.459 681.863 621.516C684.354 621.574 684.942 623.119 686.805 623.545C688.695 623.978 693.421 623.912 693.859 622.558C694.317 621.152 694.794 608.799 693.284 608.881Z" fill="#2E2E2E"/>
<path id="Path_44" fill-rule="evenodd" clip-rule="evenodd" d="M673.329 400.549L705.797 399.449L706.04 399.898C707.615 402.886 716.248 420.384 713.582 440.272C709.841 468.188 698.301 500.915 697.835 505.914C697.005 514.827 698.665 521.282 699.346 530.488C700.027 539.694 695.736 597.596 695.736 597.596C690.918 600.495 685.184 601.063 677.895 597.684C677.895 597.684 672.329 519.036 672.281 506.589C672.232 494.142 673.329 400.549 673.329 400.549Z" fill="#31694A"/>
<path id="Path_45" fill-rule="evenodd" clip-rule="evenodd" d="M680.01 430.744L679.792 432.812C677.551 454.622 675.658 500.94 676.457 508.083L676.569 508.988C677.463 516.869 677.225 536.651 675.853 568.335L674.637 550.149C673.163 527.628 672.381 513.395 672.29 507.449L672.281 506.589C672.232 494.142 673.329 400.549 673.329 400.549L680.176 400.317C680.908 412.285 680.853 422.427 680.01 430.744Z" fill="white" fill-opacity="0.192499"/>
</g>
<g id="Head_2">
<path id="Path_46" fill-rule="evenodd" clip-rule="evenodd" d="M685.708 297.173C681.713 297.61 681.997 304.635 686.86 305.001C687.854 311.773 691.399 314.999 695.72 315.372L695.481 325.615L714.597 325.603C714.597 325.603 709.214 318.368 709.483 308.463C709.751 298.557 709.303 289.251 709.303 289.251L684.542 289.696L685.708 297.173Z" fill="url(#paint3_linear)"/>
</g>
<g id="RArm_2">
<path id="Path_47" fill-rule="evenodd" clip-rule="evenodd" d="M757.337 345.947C757.337 345.947 756.501 340.252 756.766 336.504C757.257 329.574 756.319 323.727 757.836 322.818C759.781 321.651 760.992 332.609 760.992 332.609C760.992 332.609 770.365 314.713 772.682 316.925C774.998 319.135 771.18 327.738 771.947 330.519C772.713 333.299 765.056 346.749 765.056 346.749L751.263 382.237L746.501 362.941L757.337 345.947Z" fill="#FFE2E2"/>
<path id="Path_48" fill-rule="evenodd" clip-rule="evenodd" d="M716.262 353.294C716.262 353.294 733.093 379.781 736.811 384.918C740.711 390.304 747.6 392.69 752.488 384.096C753.382 382.524 755.687 378.132 755.687 378.132C754.372 370.24 751.7 363.727 746.189 360.092L743.758 363.658C743.758 363.658 732.582 343.173 729.098 338.34C719.703 325.306 705.387 337.01 716.262 353.294Z" fill="#88CEA7"/>
</g>
<g id="Body_2">
<path id="Path_49" fill-rule="evenodd" clip-rule="evenodd" d="M680.694 327.599C676.429 333.865 669.321 355.131 668.918 359.916C668.463 365.434 674.379 374.225 674.476 382.214C674.563 390.204 670.064 416.291 671.416 418.538C672.265 419.96 693.113 427.098 710.157 425.25C724.872 423.654 730.738 414.12 730.009 412.405C728.019 407.726 718.783 394.068 719.724 387.692C720.654 381.317 726.055 357.783 728.737 349.773C731.409 341.763 730.518 333.354 725.532 329.907C723.066 328.202 716.483 323.357 704.76 323.379C693.038 323.402 681.024 327.113 680.694 327.599Z" fill="#6BCA95"/>
<path id="Path_50" fill-rule="evenodd" clip-rule="evenodd" d="M674.503 341.152L674.635 341.085C682.533 337.142 687.278 336.968 688.868 340.563C690.863 345.074 685.899 357.574 673.976 378.063C672.541 371.313 668.541 364.49 668.917 359.916C669.151 357.147 671.63 348.858 674.503 341.152Z" fill="black" fill-opacity="0.159856"/>
</g>
<g id="LArm_2">
<path id="Path_51" fill-rule="evenodd" clip-rule="evenodd" d="M611.775 378.427C611.775 378.427 599.973 379.116 597.938 377.443C595.903 375.771 587.796 367.444 588.682 365.488C589.567 363.532 598.992 367.669 599.622 366.425C600.432 364.827 596.25 359.125 599.915 358.793C600.859 358.707 601.525 362.217 604.183 364.528C606.84 366.84 612.24 370.954 612.24 370.954L652.956 364.528L656.757 377.561L611.775 378.427Z" fill="#FFE2E2"/>
<path id="Path_52" fill-rule="evenodd" clip-rule="evenodd" d="M676.973 330.405C667.65 339.226 654.449 360.056 651.636 361.891C651.017 362.295 645.682 364.425 645.682 364.425C643.437 370.399 647.232 377.167 652.748 380.065C652.748 380.065 658.799 379.186 660.222 378.774C667.488 376.669 680.207 357.484 685.493 351.36C700.025 334.523 686.297 321.585 676.973 330.405Z" fill="#88CEA7"/>
</g>
<path id="Path_53" fill-rule="evenodd" clip-rule="evenodd" d="M732.528 324.866C722.745 309.288 720.661 289.454 713.725 282.797C708.219 277.513 699.48 278.979 699.48 278.979C699.48 278.979 691.911 272.629 684.488 278.979C677.066 285.328 676.946 307.409 682.107 321.287C687.268 335.164 692.684 351.229 712.987 351.229C724.363 351.229 743.577 342.46 732.528 324.866Z" fill="#28211D"/>
</g>
<g id="Group 28">
<path id="Rectangle_27" fill-rule="evenodd" clip-rule="evenodd" d="M732.271 215.922C732.271 211.614 735.764 208.122 740.071 208.122H788.144C792.452 208.122 795.944 211.614 795.944 215.922V275.919C795.944 280.227 792.452 283.719 788.144 283.719H740.071C735.764 283.719 732.271 280.227 732.271 275.919V215.922Z" fill="#FF9F43"/>
<path id="Rectangle_28" fill-rule="evenodd" clip-rule="evenodd" d="M737.577 218.627C737.577 215.755 739.905 213.427 742.777 213.427H785.438C788.309 213.427 790.638 215.755 790.638 218.627V273.214C790.638 276.086 788.309 278.414 785.438 278.414H742.777C739.905 278.414 737.577 276.086 737.577 273.214V218.627Z" fill="white"/>
<g id="Group 29">
<ellipse id="Oval_8" cx="792.627" cy="275.099" rx="16.5814" ry="16.5784" fill="#28C76F"/>
<path id="Path_54" fill-rule="evenodd" clip-rule="evenodd" d="M797.111 269.842C797.574 269.052 798.59 268.787 799.38 269.251C800.117 269.683 800.397 270.597 800.054 271.359L799.971 271.52L794.412 280.992C794.293 281.195 794.15 281.383 793.987 281.553C792.897 282.683 791.131 282.768 789.94 281.786L789.766 281.63L785.499 277.518C784.839 276.882 784.82 275.833 785.455 275.174C786.049 274.558 787.003 274.5 787.663 275.012L787.8 275.13L791.763 278.951L797.111 269.842Z" fill="white"/>
</g>
<path id="Rectangle_29" opacity="0.33996" d="M745.537 229.316C745.537 228.598 746.119 228.016 746.837 228.016H781.379C782.097 228.016 782.679 228.598 782.679 229.316V229.369C782.679 230.087 782.097 230.669 781.379 230.669H746.837C746.119 230.669 745.537 230.087 745.537 229.369V229.316Z" fill="#467FFF"/>
<path id="Rectangle_30" opacity="0.33996" d="M745.537 239.926C745.537 239.208 746.119 238.626 746.837 238.626H781.379C782.097 238.626 782.679 239.208 782.679 239.926V239.979C782.679 240.697 782.097 241.279 781.379 241.279H746.837C746.119 241.279 745.537 240.697 745.537 239.979V239.926Z" fill="#467FFF"/>
<path id="Rectangle_31" opacity="0.33996" d="M745.537 250.536C745.537 249.818 746.119 249.236 746.837 249.236H781.379C782.097 249.236 782.679 249.818 782.679 250.536V250.589C782.679 251.307 782.097 251.889 781.379 251.889H746.837C746.119 251.889 745.537 251.307 745.537 250.589V250.536Z" fill="#467FFF"/>
<rect id="Rectangle_32" x="746.862" y="204.143" width="34.4892" height="14.5889" rx="5.2" fill="#FF9F43"/>
</g>
<g id="Icon17">
<ellipse id="Oval_9" cx="467.54" cy="375.018" rx="18.7674" ry="18.7181" fill="#FF9F43"/>
<path id="Path_55" d="M465.571 364.615C465.622 364.206 465.976 363.91 466.379 363.919L466.461 363.925L475.257 365.029C475.666 365.083 475.961 365.437 475.949 365.84L475.942 365.921L474.793 374.574C474.766 374.78 474.658 374.967 474.494 375.095C474.167 375.35 473.705 375.31 473.426 375.017L473.375 374.958L471.803 372.952L463.565 379.302C463.239 379.553 462.778 379.513 462.5 379.22L462.45 379.162L461.146 377.498L460.362 384.63L467.399 385.481L466.131 383.861C465.876 383.535 465.915 383.074 466.21 382.795L466.268 382.745L472.058 378.233C472.353 378.004 472.778 378.056 473.009 378.35C473.225 378.626 473.192 379.016 472.944 379.253L472.892 379.298L467.542 383.468L469.296 385.706C469.551 386.032 469.512 386.493 469.217 386.772L469.159 386.822C469.013 386.935 468.834 386.994 468.651 386.99L468.572 386.985L459.652 385.905C459.246 385.856 458.947 385.51 458.951 385.11L458.956 385.03L459.949 375.989C459.997 375.553 460.39 375.238 460.828 375.286C461.015 375.306 461.187 375.392 461.316 375.526L461.369 375.587L463.175 377.894L471.414 371.544C471.741 371.292 472.201 371.332 472.479 371.625L472.529 371.683L473.624 373.081L474.524 366.299L467.634 365.435L468.843 366.977C469.098 367.303 469.059 367.764 468.764 368.043L468.706 368.093L463.019 372.524C462.724 372.754 462.298 372.702 462.068 372.408C461.852 372.132 461.885 371.742 462.132 371.505L462.185 371.459L467.431 367.371L465.733 365.203C465.619 365.057 465.56 364.877 465.565 364.693L465.571 364.615Z" fill="white"/>
</g>
</g>
</g>
<defs>
<filter id="filter0_d" x="278.613" y="143.752" width="318.505" height="237.231" filterUnits="userSpaceOnUse" color-interpolation-filters="sRGB">
<feFlood flood-opacity="0" result="BackgroundImageFix"/>
<feColorMatrix in="SourceAlpha" type="matrix" values="0 0 0 0 0 0 0 0 0 0 0 0 0 0 0 0 0 0 127 0"/>
<feOffset dx="6" dy="4"/>
<feGaussianBlur stdDeviation="15"/>
<feColorMatrix type="matrix" values="0 0 0 0 0.567617 0 0 0 0 0.427451 0 0 0 0 1 0 0 0 0.725907 0"/>
<feBlend mode="normal" in2="BackgroundImageFix" result="effect1_dropShadow"/>
<feBlend mode="normal" in="SourceGraphic" in2="effect1_dropShadow" result="shape"/>
</filter>
<filter id="filter1_d" x="614.727" y="151.68" width="163.824" height="195.819" filterUnits="userSpaceOnUse" color-interpolation-filters="sRGB">
<feFlood flood-opacity="0" result="BackgroundImageFix"/>
<feColorMatrix in="SourceAlpha" type="matrix" values="0 0 0 0 0 0 0 0 0 0 0 0 0 0 0 0 0 0 127 0"/>
<feOffset dx="8" dy="9"/>
<feGaussianBlur stdDeviation="10.5"/>
<feColorMatrix type="matrix" values="0 0 0 0 0.276721 0 0 0 0 0.276721 0 0 0 0 0.276721 0 0 0 0.208725 0"/>
<feBlend mode="normal" in2="BackgroundImageFix" result="effect1_dropShadow"/>
<feBlend mode="normal" in="SourceGraphic" in2="effect1_dropShadow" result="shape"/>
</filter>
<filter id="filter2_dd" x="645.272" y="169.979" width="102.882" height="103.74" filterUnits="userSpaceOnUse" color-interpolation-filters="sRGB">
<feFlood flood-opacity="0" result="BackgroundImageFix"/>
<feColorMatrix in="SourceAlpha" type="matrix" values="0 0 0 0 0 0 0 0 0 0 0 0 0 0 0 0 0 0 127 0"/>
<feOffset dx="8" dy="9"/>
<feGaussianBlur stdDeviation="14"/>
<feColorMatrix type="matrix" values="0 0 0 0 0.0755213 0 0 0 0 0.582569 0 0 0 0 0.878793 0 0 0 0.229458 0"/>
<feBlend mode="normal" in2="BackgroundImageFix" result="effect1_dropShadow"/>
<feColorMatrix in="SourceAlpha" type="matrix" values="0 0 0 0 0 0 0 0 0 0 0 0 0 0 0 0 0 0 127 0"/>
<feOffset dy="2"/>
<feGaussianBlur stdDeviation="7.5"/>
<feColorMatrix type="matrix" values="0 0 0 0 0.503982 0 0 0 0 0.700178 0 0 0 0 1 0 0 0 0.233829 0"/>
<feBlend mode="normal" in2="effect1_dropShadow" result="effect2_dropShadow"/>
<feBlend mode="normal" in="SourceGraphic" in2="effect2_dropShadow" result="shape"/>
</filter>
<filter id="filter3_d" x="294.113" y="358.979" width="196.592" height="94.1286" filterUnits="userSpaceOnUse" color-interpolation-filters="sRGB">
<feFlood flood-opacity="0" result="BackgroundImageFix"/>
<feColorMatrix in="SourceAlpha" type="matrix" values="0 0 0 0 0 0 0 0 0 0 0 0 0 0 0 0 0 0 127 0"/>
<feOffset dx="6" dy="7"/>
<feGaussianBlur stdDeviation="8.5"/>
<feColorMatrix type="matrix" values="0 0 0 0 0.561707 0 0 0 0 0.561707 0 0 0 0 0.561707 0 0 0 0.208725 0"/>
<feBlend mode="normal" in2="BackgroundImageFix" result="effect1_dropShadow"/>
<feBlend mode="normal" in="SourceGraphic" in2="effect1_dropShadow" result="shape"/>
</filter>
<filter id="filter4_d" x="297.113" y="443.397" width="188.592" height="86.1286" filterUnits="userSpaceOnUse" color-interpolation-filters="sRGB">
<feFlood flood-opacity="0" result="BackgroundImageFix"/>
<feColorMatrix in="SourceAlpha" type="matrix" values="0 0 0 0 0 0 0 0 0 0 0 0 0 0 0 0 0 0 127 0"/>
<feOffset dx="5" dy="5"/>
<feGaussianBlur stdDeviation="6.5"/>
<feColorMatrix type="matrix" values="0 0 0 0 0.649655 0 0 0 0 0.649655 0 0 0 0 0.649655 0 0 0 0.208725 0"/>
<feBlend mode="normal" in2="BackgroundImageFix" result="effect1_dropShadow"/>
<feBlend mode="normal" in="SourceGraphic" in2="effect1_dropShadow" result="shape"/>
</filter>
<linearGradient id="paint0_linear" x1="415.534" y1="469.255" x2="415.534" y2="488.796" gradientUnits="userSpaceOnUse">
<stop stop-color="#71FFB0"/>
<stop offset="1" stop-color="#91F688"/>
</linearGradient>
<linearGradient id="paint1_linear" x1="237.601" y1="239.495" x2="226.35" y2="240.533" gradientUnits="userSpaceOnUse">
<stop stop-color="#4D63A0"/>
<stop offset="1" stop-color="#222735"/>
</linearGradient>
<linearGradient id="paint2_linear" x1="225.037" y1="365.115" x2="244.108" y2="359.55" gradientUnits="userSpaceOnUse">
<stop stop-color="#2E4175"/>
<stop offset="1" stop-color="#222735"/>
</linearGradient>
<linearGradient id="paint3_linear" x1="674.28" y1="280.4" x2="677.488" y2="331.019" gradientUnits="userSpaceOnUse">
<stop stop-color="#FDC6C6"/>
<stop offset="1" stop-color="#A47070"/>
</linearGradient>
</defs>
</svg>
